<svg width="1080" height="1080" viewBox="0 0 1080 1080" fill="none" xmlns="http://www.w3.org/2000/svg">
<rect width="1080" height="1080" rx="540" fill="white"/>
<path d="M133.453 558.957C133.453 564.145 138.965 568.1 149.988 570.823C157.51 572.639 164.967 573.547 172.359 573.547C179.751 573.547 187.208 572.639 194.73 570.823C205.754 568.1 211.265 564.145 211.265 558.957C211.265 553.77 205.754 549.814 194.73 547.091C187.208 545.275 179.751 544.367 172.359 544.367C159.52 544.367 147.394 541.838 135.982 536.781C121.327 530.426 114 521.607 114 510.324C114 499.042 121.327 490.223 135.982 483.868C147.394 478.81 159.52 476.281 172.359 476.281C185.198 476.281 197.324 478.81 208.737 483.868C223.391 490.223 230.719 499.042 230.719 510.324H211.265C211.265 505.137 205.754 501.181 194.73 498.458C187.208 496.642 179.751 495.735 172.359 495.735C164.967 495.735 157.51 496.642 149.988 498.458C138.965 501.181 133.453 505.137 133.453 510.324C133.453 515.512 138.965 519.467 149.988 522.191C157.51 524.006 164.967 524.914 172.359 524.914C185.198 524.914 197.324 527.443 208.737 532.501C223.391 538.856 230.719 547.674 230.719 558.957C230.719 570.24 223.391 579.059 208.737 585.413C197.324 590.471 185.198 593 172.359 593C159.52 593 147.394 590.471 135.982 585.413C121.327 579.059 114 570.24 114 558.957H133.453ZM365.353 534.641C365.353 550.981 359.712 564.793 348.429 576.076C337.146 587.359 323.334 593 306.994 593C290.653 593 276.841 587.359 265.559 576.076C254.276 564.793 248.634 550.981 248.634 534.641C248.634 518.3 254.276 504.488 265.559 493.206C276.841 481.923 290.653 476.281 306.994 476.281C323.334 476.281 337.146 481.923 348.429 493.206C359.712 504.488 365.353 518.3 365.353 534.641ZM345.9 534.641C345.9 523.617 342.139 514.409 334.617 507.017C327.225 499.495 318.017 495.735 306.994 495.735C295.97 495.735 286.698 499.495 279.176 507.017C271.784 514.409 268.088 523.617 268.088 534.641C268.088 545.664 271.784 554.937 279.176 562.459C286.698 569.851 295.97 573.547 306.994 573.547C318.017 573.547 327.225 569.851 334.617 562.459C342.139 554.937 345.9 545.664 345.9 534.641ZM402.722 534.641C402.722 545.534 406.483 554.742 414.005 562.264C421.527 569.786 430.734 573.547 441.628 573.547H499.987V593H441.628C425.417 593 411.606 587.359 400.193 576.076C388.91 564.663 383.269 550.852 383.269 534.641V476.281H402.722V534.641ZM517.903 476.281H537.356V593H517.903V476.281Z" fill="black"/>
<path d="M594.102 573.547C599.42 573.547 603.959 571.666 607.72 567.906C611.61 564.015 613.555 559.411 613.555 554.094V476.281H633.009V554.094C633.009 559.411 634.889 564.015 638.65 567.906C642.541 571.666 647.144 573.547 652.462 573.547C657.779 573.547 662.318 571.666 666.079 567.906C669.969 564.015 671.915 559.411 671.915 554.094V476.281H691.368V554.094C691.368 564.988 687.607 574.195 680.085 581.717C672.563 589.239 663.355 593 652.462 593C640.79 593 631.063 588.591 623.282 579.772C615.501 588.591 605.774 593 594.102 593C583.209 593 574.001 589.239 566.479 581.717C558.957 574.195 555.196 564.988 555.196 554.094V476.281H574.649V554.094C574.649 559.411 576.53 564.015 580.291 567.906C584.181 571.666 588.785 573.547 594.102 573.547ZM729.799 524.914H825.898V544.367H729.799C732.004 552.927 736.608 559.93 743.611 565.377C750.744 570.823 758.72 573.547 767.538 573.547H825.898V593H767.538C751.328 593 737.516 587.359 726.103 576.076C714.821 564.663 709.179 550.852 709.179 534.641C709.179 518.43 714.821 504.683 726.103 493.4C737.516 481.988 751.328 476.281 767.538 476.281H825.898V495.735H767.538C758.72 495.735 750.744 498.458 743.611 503.905C736.608 509.352 732.004 516.355 729.799 524.914ZM916.763 593H843.814V476.281H916.763C928.045 476.281 937.188 479.07 944.192 484.646C951.843 490.742 955.669 499.301 955.669 510.324C955.669 519.792 952.427 527.897 945.942 534.641C952.427 541.255 955.669 549.36 955.669 558.957C955.669 581.652 942.7 593 916.763 593ZM926.489 524.914C929.861 524.914 932.39 523.228 934.076 519.856C935.503 517.133 936.216 513.956 936.216 510.324C936.216 507.082 935.438 503.97 933.881 500.987C931.936 497.485 929.472 495.735 926.489 495.735H863.267V524.914H926.489ZM916.763 573.547C923.117 573.547 927.592 572.898 930.185 571.602C934.206 569.527 936.216 565.312 936.216 558.957C936.216 552.473 934.141 548.193 929.991 546.118C927.656 544.951 923.247 544.367 916.763 544.367H863.267V573.547H916.763Z" fill="#2F92B1"/>
</svg>
